<svg id="レイヤー_1" data-name="レイヤー 1" xmlns="http://www.w3.org/2000/svg" viewBox="0 0 957.41 317.76"><defs><style>.cls-1,.cls-2{stroke:#000;stroke-miterlimit:10;}.cls-1{stroke-width:6px;}.cls-2{stroke-width:2px;}</style></defs><path class="cls-1" d="M293.94,162.75v12.16h-27v89.28H254.26V180.35l-57.6,82.08h-15.2l61.28-87.52H186.1V162.75h68.16V143.23H266.9v19.52Z" transform="translate(-172.94 -140.23)"/><path class="cls-1" d="M378.1,147.71h79.36l-67.2,116.48H376.34l20-34.72-26.08-45.12-15.2,26.24H341.78Zm-1.44,25.44,26.08,45.28L437,159.23H384.82Z" transform="translate(-172.94 -140.23)"/><path class="cls-1" d="M618.58,155.71l-76,108.48H527.7l67.68-96.64H543.7l-26.24,37.6h-15l43.36-61.92h15L552,155.71Z" transform="translate(-172.94 -140.23)"/><path class="cls-1" d="M804.5,264.19h-12V145.79h12Z" transform="translate(-172.94 -140.23)"/><path class="cls-1" d="M966.25,145.79v12.48h-42.4V264.19H911.69V158.27H869.45V145.79Z" transform="translate(-172.94 -140.23)"/><path d="M1050.69,213.51v24.64l70,8.54v10.92l-81.06-9.8V208.05l62.58-38.92h-76.86v-10.5h101.08v10.5h-4.2Zm69.72,1.82h-7.28l-13.44-23.24H1107Zm-3.5-29.12,13.44,23.24h-7.28l-13.44-23.24Z" transform="translate(-172.94 -140.23)"/><path class="cls-2" d="M306.42,438.91v15.36l-60.32-44.8v47.36H233.94V410.75l-60,43.84v-15.2l60-43.84v-6.08H175.7v-12h58.24v-26.4H189.46V338.91h44.48V320H246.1v18.88h44.48v12.16H246.1v26.4h58.4v12H246.1v4.64Z" transform="translate(-172.94 -140.23)"/><path class="cls-2" d="M466.58,441v15l-61.92-44.64v45.44H392.34V413l-59,42.4V440.67l59-42.56v-.32h-58.4v-12h58.4V347.87H343.06v-12h49.28v-16.8h12.32v16.8H457v12H404.66v37.92h61.6v12H406.58ZM364.5,352l21,29.76H370.74L349.94,352Zm62.4,29.76H412L432.82,352H447.7Z" transform="translate(-172.94 -140.23)"/><path d="M594.82,355.37V368L557,394.43l8.54,18.2H554.78l-5.88-12.74-24.08,16.94v13.72h65.94v10.08H514.6v-29l30-21-2.38-5-25.62-7.42,8-24.92h-22v-9.8h25.2l2.8-8.68h10.78l-2.8,8.68h41v9.8h-44.1l-6.16,18.62,20,5.88,3.36,7.14Z" transform="translate(-172.94 -140.23)"/><path class="cls-2" d="M657.46,407.71l-1.92,6.56H706.1v41.12H653.62V421.15l-9.76,34.08h-12l14.08-49.44v-45h60v46.88Zm-25-54.24,43.36-34.72,41.44,33.12v15.2l-23.84-19v7.52h-35.2v-7.68L632.5,368.51Zm62.08,18.24H657.3v7.2h37.28ZM657.3,396.83h37.28v-7.2H657.3Zm4.16-51.52H690.1L675.86,334ZM665,425.15v19.36h29.6V425.15Zm56.48,1.28V333h12.16v93.44ZM751.06,320h12.32v136.8H751.06Z" transform="translate(-172.94 -140.23)"/><path d="M915.38,378.27V426L899.7,448.19h-56V418.91h31.68l15.52,17.76h2.88l9.6-13.76v-29.6l-84,22.24h-16l46.72-72.48L825.78,338V326l44.16,9.12-42.88,66.4Zm-60.32,58.4h20.8l-8.32-9.6H855.06Z" transform="translate(-172.94 -140.23)"/><path class="cls-2" d="M731.51,172.71l-31.36,31.37,31.36,31.36-7.36,7.36-31.36-31.36L661.43,242.8l-7.36-7.36,31.36-31.36-31.36-31.37,7.36-7.36,31.36,31.37,31.36-31.37Z" transform="translate(-172.94 -140.23)"/></svg>